# xmcd
#
# Track frame offsets: 
#        200
#        15417
#        27377
#        39952
#        55692
#        69582
#        88655
#        102542
#        115162
#        131287
#        144255
#        160337
#        174147
#        195157
#        197617
#        200170
#        203252
#        210687
#        217742
#        220047
#        224720
#        227235
#        231380
#        235705
#        241750
#        245657
#        250990
#        255815
#        265492
#        268550
#        273400
#        277545
#        283165
#
# Disc length: 3831 seconds
#
# Revision: 4
# Processed by: cddbd v1.5.2PL0 Copyright (c) Steve Scherf et al.
# Submitted via: ExactAudioCopy v1.3
#
DISCID=d30ef521
DTITLE=Vern Gosdin - The Truly Great Hits Of Vern Godsin
DYEAR=2002
DGENRE=Country
TTITLE0=If Your Gonna Do Me Wrong (Do It Right) (1983)
TTITLE1=I Can Tell By The Way You Dance (1983)
TTITLE2=Waht Would Your Memories Do (1983)
TTITLE3=Dim Lights, Thick Smoke (And Loud, Loud Music) (1985)
TTITLE4=Today My World Slipped Away (1982)
TTITLE5=Jesus Hold My Hand (1984)
TTITLE6=Turn, Turn, Turn (1984)
TTITLE7=Way Down Deep (1983)
TTITLE8=Time Stood Still (1985)
TTITLE9=Slow Burning Memory (1985)
TTITLE10=I Wonder Where We'd Be Tonight (1985)
TTITLE11=I Know The Way To You By Heart (1985)
TTITLE12=I Can Tell By The Way You Dance (Remix) (1994)
TTITLE13=Interview - Singing In Church
TTITLE14=Interview - The Rock Farm
TTITLE15=Interview - WVOK, Birmingham
TTITLE16=Interview - Flying With The Byrds
TTITLE17=Interview - Emmylou Harris
TTITLE18=Interview - Hangin' On
TTITLE19=Interview - First Nashville Session
TTITLE20=Interview - Janie Frickie
TTITLE21=Interview - Elektra To Ovation
TTITLE22=Interview - Today My World Slipped Away
TTITLE23=Interview - If You're Gonna Do Me Wrong (Do It Right) (First 
TTITLE23=Single On Compleat Records)
TTITLE24=Interview - I Can Tell By The Way You Dance
TTITLE25=Interview - Flying With Jones
TTITLE26=Interview - Turn, Turn, Turn
TTITLE27=Interview - The Gospel Album
TTITLE28=Interview - Dim Lights, Thick Smoke (And Loud, Loud Music)
TTITLE29=Interview - Compleat To Columbia
TTITLE30=Interview - First Album With Producer Bob Montgomery
TTITLE31=Interview - First Album With Producer Bob Montgomery
TTITLE32=Interview - Gosdin On Stage
EXTD=
EXTT0=
EXTT1=
EXTT2=
EXTT3=
EXTT4=
EXTT5=
EXTT6=
EXTT7=
EXTT8=
EXTT9=
EXTT10=
EXTT11=
EXTT12=
EXTT13=
EXTT14=
EXTT15=
EXTT16=
EXTT17=
EXTT18=
EXTT19=
EXTT20=
EXTT21=
EXTT22=
EXTT23=
EXTT24=
EXTT25=
EXTT26=
EXTT27=
EXTT28=
EXTT29=
EXTT30=
EXTT31=
EXTT32=
PLAYORDER=
